<svg xmlns="http://www.w3.org/2000/svg" width="80.662" height="60.769" viewBox="0 0 80.662 60.769">
  <g id="Group_294" data-name="Group 294" transform="translate(-423.852 -3305.309)">
    <path id="Path_1213" data-name="Path 1213" d="M67.6,31.137H58.959c0-4.44-1.53-10.073-5.674-11.627L30.491,11H1V50.568H23.2V45.82L48.993,51.7,78.855,45.82V40.969C78.855,34.826,73.747,31.137,67.6,31.137ZM5.717,44.3V16.124H18.87V44.3ZM48.993,45.82,23.2,38.678V16.124h7.29l21.028,8.37c1.258.481,1.765,5.274,1.765,6.643,0,0-8.457.37-9.6,0l-8.636-3.189-1.89,5.1,8.807,2.923a18.441,18.441,0,0,0,5.846.962h23.74c3.321,1.373,2.33,4.137,2.922,5.358Z" transform="translate(422.852 3314.375)" fill="#100abf"/>
    <g id="paid_black_24dp" transform="translate(471.472 3305.309)">
      <g id="Group_287" data-name="Group 287" transform="translate(0 0)">
        <rect id="Rectangle_356" data-name="Rectangle 356" width="33.041" height="33.041" fill="none"/>
      </g>
      <g id="Group_288" data-name="Group 288" transform="translate(2.392 1.837)">
        <path id="Path_1214" data-name="Path 1214" d="M16.1,2a14.1,14.1,0,1,0,14.1,14.1A14.1,14.1,0,0,0,16.1,2Zm1.241,22.217v.508A1.242,1.242,0,0,1,16.1,25.966h0a1.242,1.242,0,0,1-1.241-1.241v-.592a5.652,5.652,0,0,1-3.792-2.96,1.215,1.215,0,0,1,.634-1.663l.1-.042a1.2,1.2,0,0,1,1.523.55,3.3,3.3,0,0,0,2.989,1.931c1.311,0,2.791-.677,2.791-2.27,0-1.353-.987-2.058-3.214-2.862-1.551-.55-4.723-1.452-4.723-4.666a4.339,4.339,0,0,1,3.694-4.173V7.47A1.242,1.242,0,0,1,16.1,6.229h0A1.242,1.242,0,0,1,17.338,7.47v.522a4.777,4.777,0,0,1,3.045,1.833,1.2,1.2,0,0,1-.508,1.833h0a1.232,1.232,0,0,1-1.438-.395,2.68,2.68,0,0,0-2.256-1.085c-.987,0-2.552.522-2.552,1.96,0,1.339,1.212,1.847,3.722,2.678,3.383,1.17,4.243,2.89,4.243,4.864C21.6,23.386,18.071,24.091,17.338,24.217Z" transform="translate(-2 -2)" fill="#100abf"/>
      </g>
    </g>
  </g>
</svg>
