<svg id="Group_296" data-name="Group 296" xmlns="http://www.w3.org/2000/svg" width="81.5" height="81.5" viewBox="0 0 81.5 81.5">
  <path id="Path_1219" data-name="Path 1219" d="M55.081,23.88H30.791a7.04,7.04,0,0,0-7.032,7.032V55.2a7.04,7.04,0,0,0,7.032,7.032H55.081A7.041,7.041,0,0,0,62.114,55.2V30.912A7.04,7.04,0,0,0,55.081,23.88Zm-12.145,31.8A12.626,12.626,0,1,1,55.563,43.057,12.641,12.641,0,0,1,42.936,55.684ZM55.968,33.042a2.987,2.987,0,1,1,2.987-2.987A2.991,2.991,0,0,1,55.968,33.042Z" transform="translate(-2.186 -2.197)" fill="#100abf"/>
  <path id="Path_1220" data-name="Path 1220" d="M44.14,36.971a7.291,7.291,0,1,0,7.29,7.289A7.3,7.3,0,0,0,44.14,36.971Z" transform="translate(-3.39 -3.401)" fill="#100abf"/>
  <path id="Path_1221" data-name="Path 1221" d="M40.75,0A40.75,40.75,0,1,0,81.5,40.75,40.751,40.751,0,0,0,40.75,0ZM65.262,53.005A12.38,12.38,0,0,1,52.9,65.372H28.6A12.38,12.38,0,0,1,16.238,53.005V28.715A12.381,12.381,0,0,1,28.6,16.348H52.9A12.38,12.38,0,0,1,65.262,28.715Z" fill="#100abf"/>
</svg>
