<?xml version="1.0" encoding="utf-8"?>
<!-- Generator: Adobe Illustrator 25.2.1, SVG Export Plug-In . SVG Version: 6.00 Build 0)  -->
<svg version="1.1" id="Layer_1" xmlns="http://www.w3.org/2000/svg" xmlns:xlink="http://www.w3.org/1999/xlink" x="0px" y="0px"
	 viewBox="0 0 1080 1080" style="enable-background:new 0 0 1080 1080;" xml:space="preserve">
<style type="text/css">
	.st0{fill:#100ABF;}
	.st1{fill:#EFF2D5;}
</style>
<path class="st0" d="M540,1080L540,1080C241.77,1080,0,838.23,0,540v0C0,241.77,241.77,0,540,0h0c298.23,0,540,241.77,540,540v0
	C1080,838.23,838.23,1080,540,1080z"/>
<g>
	<path class="st1" d="M632.05,510.97h28.4c16.98,0,30.47-14.96,28.01-32.42c-1.99-14.09-14.74-24.18-28.97-24.18h-27.43
		c-0.05,0-0.1-0.04-0.1-0.1v-27c0-14.23-10.09-26.98-24.18-28.97c-17.46-2.46-32.42,11.03-32.42,28.01v27.96
		c0,0.05-0.04,0.1-0.1,0.1H514.5h-28.43h-0.06v-27.1c0-14.23-10.09-26.98-24.18-28.97c-17.46-2.46-32.42,11.03-32.42,28.01v27.96
		c0,0.05-0.04,0.1-0.1,0.1h-27.37c-14.23,0-26.98,10.09-28.97,24.18c-2.46,17.46,11.02,32.42,28.01,32.42h28.33
		c0.05,0,0.1,0.04,0.1,0.1v86.46c0,0.19,0.02,0.37,0.03,0.56c0.59,45.75,37.47,82.91,83.12,83.9c15.78,0.34,29.67-11.61,30.16-27.38
		c0.5-16.08-12.42-29.26-28.4-29.2c-15.77,0.06-28.31-13.36-28.31-29.13v-85.29h0.06h28.43h60.77c0.05,0,0.1,0.04,0.1,0.1v86.46
		c0,0.19,0.02,0.37,0.03,0.56c0.59,45.75,37.47,82.91,83.12,83.9c15.78,0.34,29.67-11.61,30.16-27.38
		c0.5-16.08-12.42-29.26-28.4-29.2c-15.77,0.06-28.31-13.36-28.31-29.13v-85.2C631.96,511.01,632,510.97,632.05,510.97z"/>
	<path class="st1" d="M372.56,565.1c0-57.99-44.59-107.39-102.5-110.6c-25.81-1.43-50.46,5.94-70.95,21.11
		c-11.8,8.73-16.01,24.99-8.58,37.65c8.77,14.95,28.27,18.48,41.63,8.3c9.14-6.96,20.06-10.64,31.6-10.64
		c23.68,0,43.69,15.85,50.06,37.49c-13.61-7.4-28.91-12.07-45.16-13.28c-42.9-3.17-81.25,29.06-81.94,72.07
		c-0.66,41.12,32.6,74.78,73.57,74.78h77.65c18.92,0,34.58-15.13,34.75-34.05c0.02-1.94-0.04-3.86-0.13-5.77V565.1z M260.28,625.39
		c-10.44,0-18.71-9.47-16.67-20.28c1.59-8.38,9.52-13.87,18.05-13.66c22.43,0.55,41.62,14.4,49.97,33.94H260.28z"/>
	<path class="st1" d="M864.99,482.66c-15.63,0-28.3,12.67-28.3,28.3l0,77.06c0,18.65-13.63,35.03-32.16,37.13
		c-21.95,2.49-40.62-14.69-40.62-36.15V483.54c0-14.19-10.06-26.86-24.1-28.88c-17.49-2.51-32.49,10.99-32.49,28v104.63
		c0,48,39.07,91.47,86.98,94.5c53.99,3.41,99-39.53,99-92.8l0-78.04C893.29,495.33,880.62,482.66,864.99,482.66z"/>
</g>
</svg>
