<svg xmlns="http://www.w3.org/2000/svg" width="46.292" height="41.802" viewBox="0 0 46.292 41.802">
  <path id="_12389786231582000618" data-name="12389786231582000618" d="M106.6,86.2a13.214,13.214,0,0,0-14.222.748,1.857,1.857,0,0,1-2.523-.012A13.732,13.732,0,0,0,72.072,88.87a13.271,13.271,0,0,0-.664,17.451,4.889,4.889,0,0,1,1.183,2.423,3.512,3.512,0,0,0,3.1,3.053c.93.166,1.207.475,1.364,1.33a3.62,3.62,0,0,0,3.091,3.089c1.026.178,1.268.641,1.449,1.509a3.613,3.613,0,0,0,3.042,2.922c.99.178,1.244.582,1.461,1.461a4.054,4.054,0,0,0,6.8,1.96c.881-.784,1.7-1.639,2.535-2.471a2.4,2.4,0,0,1,1.582-.855,3.817,3.817,0,0,0,3.706-3.326,1.159,1.159,0,0,1,1.135-1.129A3.779,3.779,0,0,0,105.2,113c.145-.879.555-1.045,1.328-1.164a3.139,3.139,0,0,0,2.8-2.186c.41-2.031,1.738-3.469,2.716-5.132a12.279,12.279,0,0,0,1.7-6.379C113.639,92.85,111.345,88.728,106.6,86.2ZM76.551,110.063a2.084,2.084,0,0,1-1.956-1.212,1.867,1.867,0,0,1,.205-2.257c1.1-1.176,2.258-2.3,3.453-3.4a1.928,1.928,0,0,1,2.282-.2,2.029,2.029,0,0,1,1.207,1.924C81.73,106.321,77.963,110.051,76.551,110.063Zm6.036,3.789a2.06,2.06,0,0,1-3.139-.083,1.976,1.976,0,0,1,.036-2.958c1.014-1.069,2.077-2.1,3.175-3.1a2.162,2.162,0,0,1,3.562,1.675,1.943,1.943,0,0,1-.592,1.485C84.615,111.869,83.638,112.9,82.587,113.852Zm4.346,4.538a1.972,1.972,0,0,1-2.861-.059,1.951,1.951,0,0,1-.205-2.946c1.026-1.14,2.173-2.186,3.3-3.243a1.959,1.959,0,0,1,2.415-.261,2.057,2.057,0,0,1,1.171,1.948,1.887,1.887,0,0,1-.507,1.342C89.143,116.252,88.08,117.369,86.933,118.39Zm3.187,4.954a2.19,2.19,0,0,1-2-1.117,1.889,1.889,0,0,1,.205-2.388c1.087-1.176,2.258-2.281,3.441-3.362a1.892,1.892,0,0,1,2.27-.19A2,2,0,0,1,95.24,118.2C95.228,119.554,91.509,123.3,90.121,123.344Zm17.059-13.911c-1.1,1.045-2.282.772-3.32-.226-2.535-2.471-5.046-4.966-7.582-7.436-.543-.535-1.147-1.485-1.992-.689s.048,1.426.6,1.972c2.427,2.4,4.877,4.787,7.3,7.2,1.437,1.426,1.618,2.708.459,3.659-1.364,1.117-2.5.546-3.6-.558-2.451-2.471-4.95-4.882-7.437-7.318-.531-.511-1.1-1.271-1.859-.5-.749.748,0,1.354.507,1.865q3.767,3.742,7.582,7.436c1.074,1.045,1.485,2.138.4,3.4a1.215,1.215,0,0,1-.785.392c-.423-.012-.314-.44-.35-.725a3.856,3.856,0,0,0-3.417-3.635c-.736-.143-1.038-.38-1.147-1.129a3.79,3.79,0,0,0-3.32-3.3c-.7-.143-1.062-.3-1.171-1.081a3.743,3.743,0,0,0-3.3-3.326c-.857-.154-1.05-.511-1.244-1.259-.857-3.374-4.382-4.336-6.99-1.96a32.743,32.743,0,0,0-2.511,2.483c-.724.82-1.123.582-1.666-.2a12.341,12.341,0,0,1-2-7.377,11.046,11.046,0,0,1,6.085-9.206,11.555,11.555,0,0,1,11.638.143c1.328.713,1.823,1.342.362,2.459a22.049,22.049,0,0,0-2.4,2.328,3.991,3.991,0,0,0-.145,5.8,4.236,4.236,0,0,0,5.916,0c1.014-.915,1.992-1.877,2.922-2.875.6-.653,1.026-.689,1.666-.036C99.9,99.241,103.461,102.71,107,106.2,108.049,107.188,108.29,108.364,107.18,109.433Zm2.789-5.12c-.616,1.01-1.038,1.069-1.92.19-3.622-3.659-7.377-7.211-10.986-10.881-1.087-1.1-1.835-1.212-2.885-.012-1.1,1.259-2.354,2.388-3.574,3.54-1.05.986-2.246,1.212-3.308.131s-.845-2.233.205-3.255c1.642-1.6,3.187-3.326,4.95-4.787A11.285,11.285,0,0,1,104.91,87.48a10.976,10.976,0,0,1,6.93,9.658A12.619,12.619,0,0,1,109.969,104.313Z" transform="translate(-67.955 -83.941)" fill="#100abf" stroke="#100abf" stroke-width="1"/>
</svg>
