<svg id="groups_black_24dp" xmlns="http://www.w3.org/2000/svg" width="82" height="82" viewBox="0 0 82 82">
  <rect id="Rectangle_353" data-name="Rectangle 353" width="82" height="82" fill="none"/>
  <g id="Group_281" data-name="Group 281" transform="translate(0 20.5)">
    <path id="Path_1210" data-name="Path 1210" d="M13.667,29.917a6.833,6.833,0,1,0-6.833-6.833A6.853,6.853,0,0,0,13.667,29.917Zm3.861,3.758a23.857,23.857,0,0,0-3.861-.342,23.748,23.748,0,0,0-9.5,1.982A6.87,6.87,0,0,0,0,41.636V47H15.375V41.5A15.37,15.37,0,0,1,17.528,33.675Zm50.806-3.758A6.833,6.833,0,1,0,61.5,23.083,6.853,6.853,0,0,0,68.333,29.917ZM82,41.636a6.87,6.87,0,0,0-4.168-6.321,23.227,23.227,0,0,0-13.359-1.64A15.37,15.37,0,0,1,66.625,41.5V47H82Zm-26.513-9.5A35.681,35.681,0,0,0,41,29.062a36.254,36.254,0,0,0-14.487,3.075A10.209,10.209,0,0,0,20.5,41.5V47h41V41.5A10.209,10.209,0,0,0,55.487,32.137ZM27.572,40.167c.308-.786.444-1.333,3.109-2.357a28.779,28.779,0,0,1,20.637,0c2.631,1.025,2.768,1.572,3.109,2.357ZM41,12.833a3.417,3.417,0,1,1-3.417,3.417A3.427,3.427,0,0,1,41,12.833M41,6A10.25,10.25,0,1,0,51.25,16.25,10.236,10.236,0,0,0,41,6Z" transform="translate(0 -6)" fill="#100abf"/>
  </g>
</svg>
