<svg id="Pinterest" xmlns="http://www.w3.org/2000/svg" width="81.5" height="81.5" viewBox="0 0 81.5 81.5">
  <circle id="Ellipse_328" data-name="Ellipse 328" cx="40.75" cy="40.75" r="40.75" transform="translate(0 0)" fill="#100abf"/>
  <g id="Group_295" data-name="Group 295" transform="translate(21.065 17.863)">
    <path id="Path_1225" data-name="Path 1225" d="M51.974,61.3c-3.081-.238-4.375-1.766-6.791-3.233-1.328,6.967-2.951,13.646-7.757,17.134C35.94,64.67,39.6,56.76,41.3,48.365c-2.9-4.881.349-14.707,6.465-12.286,7.528,2.977-6.517,18.151,2.911,20.046,9.844,1.979,13.862-17.08,7.757-23.279-8.82-8.95-25.673-.2-23.6,12.609.5,3.132,3.742,4.083,1.293,8.405-5.645-1.25-7.329-5.7-7.112-11.638.349-9.716,8.73-16.518,17.136-17.46,10.631-1.19,20.609,3.9,21.986,13.9,1.549,11.286-4.8,23.509-16.166,22.631Z" transform="translate(-29 -24.593)" fill="#f1f2f2"/>
  </g>
</svg>
