<svg xmlns="http://www.w3.org/2000/svg" width="79" height="79" viewBox="0 0 79 79">
  <g id="interests_black_24dp" transform="translate(0 0.201)">
    <rect id="Rectangle_354" data-name="Rectangle 354" width="79" height="79" transform="translate(0 -0.201)" fill="none"/>
    <path id="Path_1211" data-name="Path 1211" d="M16.877,36.971A13.132,13.132,0,1,0,30.008,50.1,13.128,13.128,0,0,0,16.877,36.971Zm19.632,3.283v19.7a3.293,3.293,0,0,0,3.283,3.283h19.7a3.293,3.293,0,0,0,3.283-3.283v-19.7a3.293,3.293,0,0,0-3.283-3.283h-19.7A3.293,3.293,0,0,0,36.509,40.254ZM13.955,6.013,3.121,25.514a3.289,3.289,0,0,0,2.856,4.892H27.645A3.289,3.289,0,0,0,30.5,25.514L19.667,6.013A3.273,3.273,0,0,0,13.955,6.013ZM57.027,2.5a8.969,8.969,0,0,0-7.387,3.841,9.026,9.026,0,0,0-16.415,5.187c0,6.008,6.664,10.407,14.281,17.006a3.284,3.284,0,0,0,4.268,0c7.617-6.6,14.281-11,14.281-17.006A9.043,9.043,0,0,0,57.027,2.5Z" transform="translate(6.17 5.715)" fill="#100abf"/>
  </g>
</svg>
