<svg xmlns="http://www.w3.org/2000/svg" width="56" height="56" viewBox="0 0 56 56">
  <g id="alt_route_black_24dp" transform="translate(0 0.287)">
    <rect id="Rectangle_357" data-name="Rectangle 357" width="56" height="56" transform="translate(0 -0.287)" fill="none"/>
    <path id="Path_1215" data-name="Path 1215" d="M17.807,23l-3.3,3.3a16.9,16.9,0,0,1-4.155-6.825l4.5-1.137A12.411,12.411,0,0,0,17.807,23Zm.859-13.951-6.5-6.5a1.149,1.149,0,0,0-1.648,0l-6.477,6.5a1.161,1.161,0,0,0,.836,1.973h4.2a34.774,34.774,0,0,0,.441,5.037l4.5-1.137a30.676,30.676,0,0,1-.3-3.9h4.132A1.159,1.159,0,0,0,18.666,9.048Zm23.214,0L35.4,2.571a1.149,1.149,0,0,0-1.648,0L27.278,9.048a1.149,1.149,0,0,0,.812,1.973h4.132c-.232,8.543-2.971,11.027-5.9,13.65a20.13,20.13,0,0,0-3.366,3.6,16.557,16.557,0,0,0-2.623-2.879l-3.273,3.273c2.159,1.973,3.575,3.575,3.575,7.893h0v9.285a2.328,2.328,0,0,0,2.321,2.321h0a2.328,2.328,0,0,0,2.321-2.321V36.556h0c0-4.689,1.648-6.175,4.155-8.427,3.2-2.879,7.15-6.453,7.428-17.109h4.178A1.161,1.161,0,0,0,41.879,9.048Z" transform="translate(4.896 2.907)" fill="#100abf"/>
  </g>
</svg>
