<svg id="emoji_people_black_24dp" xmlns="http://www.w3.org/2000/svg" width="59" height="59" viewBox="0 0 59 59">
  <g id="Group_291" data-name="Group 291">
    <rect id="Rectangle_358" data-name="Rectangle 358" width="59" height="59" fill="none"/>
    <rect id="Rectangle_359" data-name="Rectangle 359" width="59" height="59" fill="none"/>
  </g>
  <g id="Group_293" data-name="Group 293" transform="translate(10.028 4.453)">
    <g id="Group_292" data-name="Group 292" transform="translate(0 0)">
      <ellipse id="Ellipse_327" data-name="Ellipse 327" cx="5.5" cy="5" rx="5.5" ry="5" transform="translate(13.972 -0.453)" fill="#100abf"/>
      <path id="Path_1216" data-name="Path 1216" d="M33.114,17.02a7.626,7.626,0,0,0-5.8-2.729H21.068a12.348,12.348,0,0,1-12.1-10.2A2.453,2.453,0,0,0,6.564,2h0A2.469,2.469,0,0,0,4.106,4.8,17.3,17.3,0,0,0,16.176,18.5V48.708a2.466,2.466,0,0,0,2.458,2.458h0a2.466,2.466,0,0,0,2.458-2.458V36.417H26.01V48.708a2.466,2.466,0,0,0,2.458,2.458h0a2.466,2.466,0,0,0,2.458-2.458V21.79l7.965,7.965a2.448,2.448,0,0,0,3.466,0h0a2.448,2.448,0,0,0,0-3.466Z" transform="translate(-4.079 -1.536)" fill="#100abf"/>
    </g>
  </g>
</svg>
