<svg id="YouTube" xmlns="http://www.w3.org/2000/svg" width="81.5" height="81.5" viewBox="0 0 81.5 81.5">
  <path id="Path_1222" data-name="Path 1222" d="M0,40.75A40.75,40.75,0,1,1,40.75,81.5,40.75,40.75,0,0,1,0,40.75Z" fill="#100abf"/>
  <path id="Path_1223" data-name="Path 1223" d="M53.758,20.078a5.518,5.518,0,0,0-3.843-3.946C46.526,15.2,32.933,15.2,32.933,15.2s-13.593,0-16.982.933a5.518,5.518,0,0,0-3.843,3.946C11.2,23.559,11.2,30.821,11.2,30.821s0,7.262.908,10.742a5.519,5.519,0,0,0,3.843,3.946c3.39.932,16.982.932,16.982.932s13.593,0,16.982-.932a5.519,5.519,0,0,0,3.843-3.946c.908-3.481.908-10.742.908-10.742S54.667,23.559,53.758,20.078Z" transform="translate(7.817 10.608)" fill="#fff"/>
  <path id="Path_1224" data-name="Path 1224" d="M21.6,34.383V20.8l10.867,6.792Z" transform="translate(15.075 14.517)" fill="#100abf"/>
</svg>
