<svg xmlns="http://www.w3.org/2000/svg" width="531.361" height="461.296" viewBox="0 0 531.361 461.296">
  <g id="Group_342" data-name="Group 342" transform="translate(-1041.319 -256.704)">
    <path id="Path_932" data-name="Path 932" d="M93.512,503.776l10.6,2.963,16.473-39.47L104.942,462.9Z" transform="translate(1028.816 194.807)" fill="#faceab"/>
    <path id="Path_933" data-name="Path 933" d="M0,0H34.587V13.363H12.026A12.026,12.026,0,0,1,0,1.337V0Z" transform="matrix(-0.963, -0.269, 0.269, -0.963, 1150.616, 717.1)" fill="#2f2e41"/>
    <path id="Path_934" data-name="Path 934" d="M239.45,513.115h11.005l5.233-42.448H239.447Z" transform="translate(1009.302 193.768)" fill="#faceab"/>
    <path id="Path_935" data-name="Path 935" d="M0,0H34.587V13.363H12.026A12.026,12.026,0,0,1,0,1.337V0Z" transform="translate(1280.982 717.099) rotate(179.995)" fill="#2f2e41"/>
    <path id="Path_936" data-name="Path 936" d="M141.139,316.237l-25.33,62.053,103.432,23.236,1.319-34.717-46.966-50.025Z" transform="translate(1025.834 214.418)" fill="#b3b3b3"/>
    <circle id="Ellipse_250" data-name="Ellipse 250" cx="23.643" cy="23.643" r="23.643" transform="translate(1179.662 403.837) rotate(-28.663)" fill="#faceab"/>
    <path id="Path_937" data-name="Path 937" d="M493.008,483.018,446.19,463.853l-4.168-27.485a31.581,31.581,0,0,1,25.034-35.739l6.193-1.244a31.872,31.872,0,0,1,28.542,8.465,30.43,30.43,0,0,1,8.929,27.379A26.509,26.509,0,0,1,505.71,446.9c-14.708,19.233-12.819,35.221-12.8,35.381Z" transform="translate(735.637 44.203)" fill="#627ac9"/>
    <path id="Path_938" data-name="Path 938" d="M518.883,554.692,495.42,517.378l7.39-67.877L492.6,398.735l.543.014A23.133,23.133,0,0,1,515.7,421.314l9.931,49.745Z" transform="translate(728.825 44.207)" fill="#2f2e41"/>
    <path id="Path_939" data-name="Path 939" d="M504.227,663.749a4.285,4.285,0,0,1-4.2-3.439l-10.279-51.115a80.186,80.186,0,0,0-10.44-26.44l-29-46.919a1.492,1.492,0,0,0-2.647.212L399.974,650.6a4.293,4.293,0,0,1-4.81,2.551l-12.739-2.6a4.266,4.266,0,0,1-3.368-4.913L389.449,584.4a158.073,158.073,0,0,1,10.759-36.288L435.4,466.771l51.938,17.057,3.427,36.369,24,58.109a39.834,39.834,0,0,1,2.935,12.6l4.434,67.159a4.3,4.3,0,0,1-3.925,4.552l-13.629,1.115Q504.4,663.749,504.227,663.749Z" transform="translate(744.016 35.109)" fill="#2f2e41"/>
    <path id="Path_940" data-name="Path 940" d="M411.643,571.783l-16.466-15.629,31.118-120a50.3,50.3,0,0,1,29.6-33.812l.611-.249-1.663,73.032Z" transform="translate(741.852 43.757)" fill="#2f2e41"/>
    <path id="Path_941" data-name="Path 941" d="M471.474,383.537c-5.841-5.056-7.618-14.487-4.038-21.441s12.137-10.7,19.455-8.509c6.892,2.06,14.727-4.811,13.887-12.179s-10-12.167-16.245-8.507a26.431,26.431,0,0,0-28.175,5.488,28.7,28.7,0,0,0-6.821,28.8C452.828,377.059,462.015,384.534,471.474,383.537Z" transform="translate(734.767 53.264)" fill="#2f2e41"/>
    <path id="Path_942" data-name="Path 942" d="M439.548,594.414a4.034,4.034,0,0,1-.9.231l-37.592,5.248a4.046,4.046,0,0,1-4.355-2.567l-32.358-84.2a4.063,4.063,0,0,1,2.908-5.423h0l35.352-7.889a3.235,3.235,0,0,0,.785-.287l34.385-17.977a4.025,4.025,0,0,1,.836-.325l37.84-10.088a4.055,4.055,0,0,1,4.839,2.468l28.214,73.416a4.043,4.043,0,0,1-.534,3.884l-9.758,13.1a4.057,4.057,0,0,1-1.8,1.366l-21.325,8.2a3.231,3.231,0,0,0-.443.211l-35.534,20.365A4.062,4.062,0,0,1,439.548,594.414Z" transform="translate(746.011 34.544)" fill="#fff"/>
    <path id="Path_943" data-name="Path 943" d="M458.062,483.331l-4.805,1.282-12.734,3.4-.023.005-17.434,9.116-6.47,3.384h0l-9.717,5.08-.266.06-10.094,2.251L391.637,509l-19.9,4.44,31.237,81.282,20.5-2.861,5.028-.7,10.716-1.5.124-.016,34.434-19.736,20.951-8.052L504.3,549.01l-27.192-70.755Z" transform="translate(744.986 33.574)" fill="#e6e6e6"/>
    <rect id="Rectangle_322" data-name="Rectangle 322" width="110.977" height="4.945" transform="translate(1122.984 563.295) rotate(-21.022)" fill="#fff"/>
    <rect id="Rectangle_323" data-name="Rectangle 323" width="110.977" height="4.945" transform="translate(1128.897 578.682) rotate(-21.022)" fill="#fff"/>
    <rect id="Rectangle_324" data-name="Rectangle 324" width="110.977" height="4.945" transform="translate(1140.842 609.763) rotate(-21.022)" fill="#fff"/>
    <path id="Path_944" data-name="Path 944" d="M185.95,300.365l31.013,80.7-4.616,1.774-31.2-81.19Z" transform="translate(1017.098 216.54)" fill="#fff"/>
    <path id="Path_945" data-name="Path 945" d="M141.58,316.294l-6.368,17.719L133,340.159,127.853,354.5l-1.1,3.066-1.1,3.081-1.454,4.045-10.44,29.053-2.714-7.063,8.512-23.692,1.926-5.364.282-.783,2.277-6.342,2.873-8,2.208-6.147,5.991-16.677h0Z" transform="translate(1026.472 214.41)" fill="#fff"/>
    <path id="Path_946" data-name="Path 946" d="M195.222,387.373l-.751.289L160.037,407.4l-.125.016-32.615-84,.267-.06,9.717-5.08h0l6.47-3.384,17.434-9.116.023-.005Z" transform="translate(1024.298 215.818)" opacity="0.1"/>
    <path id="Path_947" data-name="Path 947" d="M439.636,594.751a4.481,4.481,0,0,1-.99.255l-37.593,5.248a4.477,4.477,0,0,1-4.819-2.84l-32.358-84.2a4.5,4.5,0,0,1,3.217-6l35.352-7.889a2.808,2.808,0,0,0,.678-.248L437.508,481.1a4.468,4.468,0,0,1,.925-.36l37.841-10.088a4.487,4.487,0,0,1,5.355,2.731L509.843,546.8a4.474,4.474,0,0,1-.591,4.3L499.5,564.2a4.489,4.489,0,0,1-1.993,1.512l-21.325,8.2a2.8,2.8,0,0,0-.383.182L440.26,594.454a4.5,4.5,0,0,1-.624.3Zm-72.555-85.728a2.764,2.764,0,0,0-1.588,3.571l32.358,84.2a2.752,2.752,0,0,0,2.962,1.746l37.593-5.248a2.773,2.773,0,0,0,.992-.339l35.534-20.365a4.515,4.515,0,0,1,.623-.3l21.325-8.2a2.762,2.762,0,0,0,1.225-.929l9.757-13.1a2.75,2.75,0,0,0,.363-2.642L480.012,474a2.758,2.758,0,0,0-3.291-1.679L438.88,482.414a2.852,2.852,0,0,0-.568.221l-34.385,17.978a4.567,4.567,0,0,1-1.1.4l-35.352,7.889A2.733,2.733,0,0,0,367.081,509.022Z" transform="translate(746.078 34.611)" fill="#e6e6e6"/>
    <path id="Path_948" data-name="Path 948" d="M114.893,328.733l31.993,83.249-5.027.7-31.845-82.861Z" transform="translate(1026.609 212.747)" fill="#fff"/>
    <circle id="Ellipse_251" data-name="Ellipse 251" cx="2.308" cy="2.308" r="2.308" transform="translate(1148.396 570.468)" fill="#3f3d56"/>
    <circle id="Ellipse_252" data-name="Ellipse 252" cx="2.308" cy="2.308" r="2.308" transform="translate(1218.034 575.083)" fill="#100abf"/>
    <path id="Path_949" data-name="Path 949" d="M493.355,498.973c1.9,4.94-.386,21.313-1.19,26.569a.955.955,0,0,1-1.549.6c-4.116-3.365-16.778-13.993-18.677-18.934a11.472,11.472,0,0,1,21.416-8.23Z" transform="translate(727.07 46.422)" fill="#100abf"/>
    <ellipse id="Ellipse_253" data-name="Ellipse 253" cx="6.214" cy="6.214" rx="6.214" ry="6.214" transform="translate(1203.503 543.296)" fill="#fff"/>
    <path id="Path_950" data-name="Path 950" d="M476.682,485.507a9.027,9.027,0,0,1,12.575-5.784l15.3-13.832,10.674,7.249-21.884,19.23a9.075,9.075,0,0,1-16.667-6.863Z" transform="translate(730.999 35.227)" fill="#faceab"/>
    <path id="Path_951" data-name="Path 951" d="M503.345,481.463,491.35,465.184l27.345-17.5-19.6-27.967a11.333,11.333,0,0,1,16.919-14.876l24.541,22.39a20.557,20.557,0,0,1-2.884,32.57Z" transform="translate(728.992 43.787)" fill="#2f2e41"/>
    <path id="Path_952" data-name="Path 952" d="M394.508,536.8a9.027,9.027,0,0,0,1.253-13.784l7.929-19.042-10.4-7.641-10.82,27.049A9.075,9.075,0,0,0,394.508,536.8Z" transform="translate(743.853 31.156)" fill="#faceab"/>
    <path id="Path_953" data-name="Path 953" d="M400,505.636l-18.752-4.367,13.974-40.3a66.064,66.064,0,0,1,10.511-19.236l22.8-28.99a12.748,12.748,0,1,1,20.1,15.688l-25.3,32.649Z" transform="translate(743.714 42.989)" fill="#2f2e41"/>
    <path id="Path_954" data-name="Path 954" d="M615.614,715.983H285.56a.866.866,0,0,1,0-1.733H615.614a.866.866,0,1,1,0,1.733Z" transform="translate(756.625 2.018)" fill="#343434" opacity="0.5"/>
    <path id="Path_955" data-name="Path 955" d="M813.279,644.613h-7.8V187.648a3.9,3.9,0,0,1,7.8,0Z" transform="translate(686.988 72.954)" fill="#2f2e41"/>
    <path id="Path_956" data-name="Path 956" d="M860.84,715.983H739.56a.866.866,0,1,1,0-1.733H860.84a.866.866,0,1,1,0,1.733Z" transform="translate(695.918 2.018)" fill="#121212" opacity="0.5"/>
    <path id="Path_957" data-name="Path 957" d="M847.188,246.465H744.994a3.724,3.724,0,0,1-3.512-3.9V209.648a3.724,3.724,0,0,1,3.512-3.9H847.2a3.251,3.251,0,0,1,1.711.494l26.428,16.372a4.119,4.119,0,0,1,.014,6.8l-26.436,16.547A3.254,3.254,0,0,1,847.188,246.465Z" transform="translate(695.545 70.012)" fill="#2f2e41"/>
    <path id="Path_958" data-name="Path 958" d="M830.325,328.465H726.178a3.363,3.363,0,0,1-1.758-.5l-26.941-16.547a4.076,4.076,0,0,1,.014-6.8l26.933-16.372a3.36,3.36,0,0,1,1.744-.494H830.325a3.753,3.753,0,0,1,3.579,3.9v32.919A3.753,3.753,0,0,1,830.325,328.465Z" transform="translate(714.008 59.047)" fill="#2f2e41"/>
    <path id="Path_959" data-name="Path 959" d="M831.247,408.965H726.773a3.381,3.381,0,0,1-1.763-.5l-27.025-16.547a4.069,4.069,0,0,1,.014-6.8l27.018-16.372a3.378,3.378,0,0,1,1.75-.495H831.247a3.758,3.758,0,0,1,3.59,3.9v32.919A3.758,3.758,0,0,1,831.247,408.965Z" transform="translate(713.508 48.283)" fill="#2f2e41"/>
    <g id="email_black_24dp" transform="translate(1481.392 351.129)">
      <path id="Path_926" data-name="Path 926" d="M0,0H30.32V30.32H0Z" fill="none"/>
      <path id="Path_927" data-name="Path 927" d="M27.267,6.527A2.534,2.534,0,0,0,24.74,4H4.527A2.534,2.534,0,0,0,2,6.527v15.16a2.534,2.534,0,0,0,2.527,2.527H24.74a2.534,2.534,0,0,0,2.527-2.527Zm-2.527,0L14.633,12.843,4.527,6.527Zm0,15.16H4.527V9.053L14.633,15.37,24.74,9.053Z" transform="translate(0.527 1.053)" fill="#ffffa4"/>
    </g>
    <g id="location_on_black_24dp" transform="translate(1480.525 280.96)">
      <path id="Path_928" data-name="Path 928" d="M0,0H30.926V30.926H0Z" fill="none"/>
      <path id="Path_929" data-name="Path 929" d="M14.02,2A9.013,9.013,0,0,0,5,11.02c0,6.765,9.02,16.752,9.02,16.752s9.02-9.986,9.02-16.752A9.013,9.013,0,0,0,14.02,2ZM7.577,11.02a6.443,6.443,0,1,1,12.886,0c0,3.711-3.711,9.265-6.443,12.731C11.34,20.311,7.577,14.692,7.577,11.02Z" transform="translate(1.443 0.577)" fill="#ffffa4"/>
      <circle id="Ellipse_249" data-name="Ellipse 249" cx="3.221" cy="3.221" r="3.221" transform="translate(12.241 8.376)" fill="#ffffa4"/>
    </g>
    <g id="phone_black_24dp" transform="translate(1482.122 423.024)">
      <path id="Path_930" data-name="Path 930" d="M0,0H27.734V27.734H0Z" fill="none"/>
      <path id="Path_931" data-name="Path 931" d="M7.091,5.311A14.228,14.228,0,0,0,7.611,8.3L6.224,9.691a17.132,17.132,0,0,1-.878-4.38H7.091M18.485,19.2a14.736,14.736,0,0,0,3,.52v1.722a17.826,17.826,0,0,1-4.391-.867L18.485,19.2M8.2,3H4.156A1.159,1.159,0,0,0,3,4.156,19.643,19.643,0,0,0,22.645,23.8,1.159,1.159,0,0,0,23.8,22.645V18.612a1.159,1.159,0,0,0-1.156-1.156,13.182,13.182,0,0,1-4.125-.659.97.97,0,0,0-.358-.058,1.184,1.184,0,0,0-.82.335L14.8,19.617A17.505,17.505,0,0,1,7.183,12L9.725,9.46a1.16,1.16,0,0,0,.289-1.179,13.128,13.128,0,0,1-.659-4.125A1.159,1.159,0,0,0,8.2,3Z" transform="translate(0.467 0.467)" fill="#ffffa4"/>
    </g>
  </g>
</svg>
