<svg xmlns="http://www.w3.org/2000/svg" width="283.324" height="174.261" viewBox="0 0 283.324 174.261">
  <path id="Path_1292" data-name="Path 1292" d="M294.394,199.688a58.058,58.058,0,0,1-1.7,14.009q-.573,2.316-1.33,4.537a53.577,53.577,0,0,1-2.146,5.369q-.613,1.328-1.3,2.6a35.014,35.014,0,0,1-2.927,14.069,36.272,36.272,0,0,1-17.6,18.137,37.028,37.028,0,0,1-15.715,3.608H64.858a47.07,47.07,0,0,1-23.674-6.329l-.111-.063q-1.537-.9-3-1.905a47,47,0,0,1-6.151-5.071,45.769,45.769,0,0,1-6.762-8.378,44.708,44.708,0,0,1-6.877-23.869,56.29,56.29,0,0,1-7.216-27.874,55.238,55.238,0,0,1,11.164-33.809,47.53,47.53,0,0,1,4.741-5.275,44.118,44.118,0,0,1,5.422-4.438,42.184,42.184,0,0,1,4.811-2.887c.7-.354,1.393-.688,2.1-1,.623-.277,1.253-.534,1.891-.777q1.147-.435,2.324-.8t2.321-.64q1.684-.411,3.425-.669c.962-.142,1.924-.241,2.887-.315.765-.058,1.537-.089,2.314-.1h.421c.856,0,1.708.034,2.552.091.089-.178.185-.358.274-.534.337-.642.686-1.282,1.037-1.908a.06.06,0,0,1,0-.017c.06-.111.12-.219.183-.325.284-.512.58-1.02.883-1.523.14-.241.277-.467.419-.693a1.842,1.842,0,0,1,.1-.164q.216-.361.44-.722,1.114-1.78,2.316-3.5l.2-.293c.125-.178.241-.351.38-.529.332-.464.674-.931,1.018-1.388.241-.327.481-.652.741-.962q.938-1.2,1.924-2.405t2.049-2.374c.1-.108.192-.214.293-.32l1.027-1.121h0c.051-.053.094-.1.142-.149h0c.123-.132.241-.265.373-.392.551-.585,1.116-1.157,1.684-1.727a91.694,91.694,0,0,1,9.213-8.027c.127-.1.257-.2.385-.293.611-.459,1.232-.914,1.852-1.361a97.493,97.493,0,0,1,10.683-6.663c.255-.147.515-.284.777-.419A101.993,101.993,0,0,1,106.061,95.4c1.9-.753,3.849-1.46,5.807-2.107,1.3-.428,2.612-.835,3.938-1.217q3.108-.895,6.259-1.6a111.458,111.458,0,0,1,18.82-2.564q2.886-.147,5.838-.152a111.854,111.854,0,0,1,28.144,3.56,1.015,1.015,0,0,0,.873.455h.808c.351.1.7.192,1.051.293q2.942.847,5.8,1.85l.481.173A103.543,103.543,0,0,1,197.57,100.1a98.789,98.789,0,0,1,11.462,7.082q.844.606,1.665,1.222,1-.637,2.025-1.222a39.84,39.84,0,0,1,8.39-3.577,38.271,38.271,0,0,1,18.82-.736,41.644,41.644,0,0,1,21.086,11.893,49.2,49.2,0,0,1,6.324,8.029c.132.207.265.416.392.628a52.925,52.925,0,0,1,4.027,8.027c.041.1.082.2.118.3a55.587,55.587,0,0,1,2.478,8.022c.029.139.063.277.091.416a57.763,57.763,0,0,1,1.184,8.027,1.556,1.556,0,0,0,.019.3q.152,2.1.154,4.234c0,1.275-.043,2.54-.123,3.8,0,.137-.019.279-.031.421-.022.363-.053.722-.084,1.087a45.645,45.645,0,0,1,5.143,4.852q1.051,1.147,2.035,2.381a50.665,50.665,0,0,1,5.244,8.027A56.332,56.332,0,0,1,294.394,199.688Z" transform="translate(-11.07 -87.76)" fill="#ccd2ed" opacity="0.5"/>
  <g id="Group_343" data-name="Group 343" transform="translate(-991.06 -241.144)">
    <path id="Path_932" data-name="Path 932" d="M93.512,476.96l3.646,1.019,5.667-13.579-5.381-1.5Z" transform="translate(975.677 -68.235)" fill="#faceab"/>
    <path id="Path_933" data-name="Path 933" d="M0,0H11.9V4.6H4.137A4.137,4.137,0,0,1,0,.46V0Z" transform="matrix(-0.963, -0.269, 0.269, -0.963, 1078.921, 415.095)" fill="#2f2e41"/>
    <path id="Path_934" data-name="Path 934" d="M239.448,485.27h3.786l1.8-14.6h-5.588Z" transform="translate(873.235 -73.69)" fill="#faceab"/>
    <path id="Path_935" data-name="Path 935" d="M0,0H11.9V4.6H4.137A4.137,4.137,0,0,1,0,.46V0Z" transform="translate(1123.771 415.095) rotate(179.995)" fill="#2f2e41"/>
    <path id="Path_936" data-name="Path 936" d="M124.523,316.237l-8.714,21.348,35.584,7.994.454-11.944-16.158-17.21Z" transform="translate(960.025 34.715)" fill="#b3b3b3"/>
    <circle id="Ellipse_250" data-name="Ellipse 250" cx="8.134" cy="8.134" r="8.134" transform="translate(1088.914 307.322) rotate(-28.663)" fill="#faceab"/>
    <path id="Path_937" data-name="Path 937" d="M459.322,427.751l-16.107-6.593-1.434-9.456a10.865,10.865,0,0,1,8.612-12.3l2.13-.428a10.965,10.965,0,0,1,9.819,2.912,10.469,10.469,0,0,1,3.072,9.419,9.119,9.119,0,0,1-1.723,4.014c-5.06,6.617-4.41,12.117-4.4,12.172Z" transform="translate(646.443 -77.98)" fill="#627ac9"/>
    <path id="Path_938" data-name="Path 938" d="M501.644,452.389l-8.072-12.837,2.542-23.352L492.6,398.735l.187,0a7.959,7.959,0,0,1,7.76,7.763l3.417,17.114Z" transform="translate(610.68 -77.959)" fill="#2f2e41"/>
    <path id="Path_939" data-name="Path 939" d="M422.078,534.538a1.474,1.474,0,0,1-1.444-1.183L417.1,515.769a27.586,27.586,0,0,0-3.592-9.1l-9.979-16.142a.513.513,0,0,0-.911.073l-16.406,39.411a1.477,1.477,0,0,1-1.655.878L380.174,530a1.467,1.467,0,0,1-1.159-1.69l3.575-21.07a54.384,54.384,0,0,1,3.7-12.484L398.4,466.771l17.868,5.868,1.179,12.512,8.256,19.991a13.7,13.7,0,0,1,1.01,4.336l1.525,23.1a1.481,1.481,0,0,1-1.35,1.566l-4.689.384Q422.138,534.538,422.078,534.538Z" transform="translate(690.43 -125.718)" fill="#2f2e41"/>
    <path id="Path_940" data-name="Path 940" d="M400.842,460.475l-5.665-5.377,10.706-41.282a17.3,17.3,0,0,1,10.182-11.632l.21-.086-.572,25.125Z" transform="translate(679.069 -80.32)" fill="#2f2e41"/>
    <path id="Path_941" data-name="Path 941" d="M456.186,349.074A6.3,6.3,0,0,1,454.8,341.7a5.874,5.874,0,0,1,6.693-2.927c2.371.709,5.067-1.655,4.778-4.19a3.933,3.933,0,0,0-5.589-2.927,9.093,9.093,0,0,0-9.693,1.888,9.872,9.872,0,0,0-2.347,9.907C449.771,346.845,452.931,349.417,456.186,349.074Z" transform="translate(641.872 -30.411)" fill="#2f2e41"/>
    <path id="Path_942" data-name="Path 942" d="M390.041,513.457a1.39,1.39,0,0,1-.308.079L376.8,515.342a1.392,1.392,0,0,1-1.5-.883L364.17,485.492a1.4,1.4,0,0,1,1-1.866h0l12.162-2.714a1.115,1.115,0,0,0,.27-.1l11.829-6.185a1.384,1.384,0,0,1,.288-.112l13.018-3.471a1.4,1.4,0,0,1,1.665.849l9.707,25.258a1.391,1.391,0,0,1-.184,1.336L410.569,503a1.4,1.4,0,0,1-.62.47l-7.336,2.819a1.111,1.111,0,0,0-.152.073l-12.225,7.006A1.407,1.407,0,0,1,390.041,513.457Z" transform="translate(700.901 -128.686)" fill="#fff"/>
    <path id="Path_943" data-name="Path 943" d="M401.437,480l-1.653.441-4.381,1.168-.008,0-6,3.136-2.226,1.164h0l-3.343,1.748-.092.021-3.473.774-1.678.375-6.846,1.528,10.747,27.964,7.054-.984,1.73-.242,3.687-.515.043-.005,11.846-6.79,7.208-2.77,3.291-4.419-9.355-24.342Z" transform="translate(695.523 -133.78)" fill="#e6e6e6"/>
    <rect id="Rectangle_322" data-name="Rectangle 322" width="38.18" height="1.701" transform="translate(1069.415 362.181) rotate(-21.022)" fill="#fff"/>
    <rect id="Rectangle_323" data-name="Rectangle 323" width="38.18" height="1.701" transform="translate(1071.449 367.475) rotate(-21.022)" fill="#fff"/>
    <rect id="Rectangle_324" data-name="Rectangle 324" width="38.18" height="1.701" transform="translate(1075.558 378.168) rotate(-21.022)" fill="#fff"/>
    <path id="Path_944" data-name="Path 944" d="M182.8,300.365l10.669,27.763-1.588.61-10.735-27.932Z" transform="translate(914.161 45.857)" fill="#fff"/>
    <path id="Path_945" data-name="Path 945" d="M121.545,316.294l-2.191,6.1-.76,2.115-1.772,4.934-.38,1.055-.38,1.06-.5,1.391-3.592,10-.934-2.43,2.928-8.151.663-1.845.1-.269.784-2.182.989-2.752.76-2.115,2.061-5.737h0Z" transform="translate(963.375 34.675)" fill="#fff"/>
    <path id="Path_946" data-name="Path 946" d="M150.666,333.841l-.258.1-11.846,6.79-.043.005-11.221-28.9.092-.021,3.343-1.748h0l2.226-1.164,6-3.136.008,0Z" transform="translate(951.96 42.066)" opacity="0.1"/>
    <path id="Path_947" data-name="Path 947" d="M389.744,513.244a1.545,1.545,0,0,1-.341.088l-12.933,1.805a1.54,1.54,0,0,1-1.658-.977L363.68,485.193a1.547,1.547,0,0,1,1.107-2.065l12.162-2.714a.967.967,0,0,0,.233-.085l11.829-6.185a1.535,1.535,0,0,1,.318-.124l13.019-3.471a1.544,1.544,0,0,1,1.842.94l9.707,25.257a1.539,1.539,0,0,1-.2,1.479l-3.357,4.508a1.545,1.545,0,0,1-.686.52l-7.336,2.819a.962.962,0,0,0-.132.063l-12.225,7.006a1.55,1.55,0,0,1-.215.1Zm-24.961-29.493a.951.951,0,0,0-.546,1.229l11.132,28.967a.947.947,0,0,0,1.019.6l12.933-1.805a.954.954,0,0,0,.341-.117l12.225-7.006a1.561,1.561,0,0,1,.214-.1l7.336-2.819a.95.95,0,0,0,.422-.32l3.357-4.508a.946.946,0,0,0,.125-.909L403.634,471.7a.949.949,0,0,0-1.132-.578L389.483,474.6a.984.984,0,0,0-.2.076l-11.83,6.185a1.573,1.573,0,0,1-.38.139l-12.162,2.714A.944.944,0,0,0,364.782,483.751Z" transform="translate(701.252 -128.334)" fill="#e6e6e6"/>
    <path id="Path_948" data-name="Path 948" d="M111.693,328.733l11.007,28.64-1.729.242-10.956-28.507Z" transform="translate(964.093 25.943)" fill="#fff"/>
    <circle id="Ellipse_251" data-name="Ellipse 251" cx="0.794" cy="0.794" r="0.794" transform="translate(1078.157 364.649)" fill="#3f3d56"/>
    <circle id="Ellipse_252" data-name="Ellipse 252" cx="0.794" cy="0.794" r="0.794" transform="translate(1102.115 366.237)" fill="#100abf"/>
    <path id="Path_949" data-name="Path 949" d="M478.8,494.146c.653,1.7-.133,7.332-.409,9.14a.329.329,0,0,1-.533.2c-1.416-1.158-5.772-4.814-6.425-6.514a3.947,3.947,0,0,1,7.368-2.832Z" transform="translate(624.134 -138.123)" fill="#100abf"/>
    <ellipse id="Ellipse_253" data-name="Ellipse 253" cx="2.138" cy="2.138" rx="2.138" ry="2.138" transform="translate(1097.116 355.301)" fill="#fff"/>
    <path id="Path_950" data-name="Path 950" d="M476.461,472.639a3.105,3.105,0,0,1,4.326-1.99l5.264-4.759,3.672,2.494L482.2,475a3.122,3.122,0,0,1-5.734-2.361Z" transform="translate(622.092 -125.101)" fill="#faceab"/>
    <path id="Path_951" data-name="Path 951" d="M495.476,429.259l-4.127-5.6,9.408-6.021-6.743-9.622a3.9,3.9,0,0,1,5.821-5.118l8.443,7.7a7.072,7.072,0,0,1-.992,11.205Z" transform="translate(611.559 -80.166)" fill="#2f2e41"/>
    <path id="Path_952" data-name="Path 952" d="M385.13,510.259a3.105,3.105,0,0,0,.431-4.742l2.728-6.551-3.577-2.629-3.722,9.306a3.122,3.122,0,0,0,4.14,4.616Z" transform="translate(689.575 -146.473)" fill="#faceab"/>
    <path id="Path_953" data-name="Path 953" d="M387.7,441.487l-6.451-1.5,4.807-13.863a22.729,22.729,0,0,1,3.616-6.618l7.843-9.973a4.386,4.386,0,0,1,6.914,5.4l-8.7,11.232Z" transform="translate(688.844 -84.353)" fill="#2f2e41"/>
    <path id="Path_954" data-name="Path 954" d="M398.541,714.846H284.992a.3.3,0,0,1,0-.6H398.541a.3.3,0,1,1,0,.6Z" transform="translate(756.625 -299.441)" fill="#343434" opacity="0.5"/>
    <path id="Path_955" data-name="Path 955" d="M808.164,342.3h-2.682V185.091a1.341,1.341,0,0,1,2.682,0Z" transform="translate(391.048 72.954)" fill="#2f2e41"/>
    <path id="Path_956" data-name="Path 956" d="M780.716,714.846H738.992a.3.3,0,1,1,0-.6h41.724a.3.3,0,1,1,0,.6Z" transform="translate(437.931 -299.441)" fill="#121212" opacity="0.5"/>
    <path id="Path_957" data-name="Path 957" d="M777.848,219.757H742.69a1.281,1.281,0,0,1-1.208-1.341V207.091a1.281,1.281,0,0,1,1.208-1.341h35.161a1.118,1.118,0,0,1,.589.17l9.092,5.632a1.417,1.417,0,0,1,0,2.339l-9.095,5.693A1.119,1.119,0,0,1,777.848,219.757Z" transform="translate(435.974 57.511)" fill="#2f2e41"/>
    <path id="Path_958" data-name="Path 958" d="M741.987,301.757h-35.83a1.157,1.157,0,0,1-.6-.173l-9.269-5.693a1.4,1.4,0,0,1,0-2.339l9.266-5.632a1.156,1.156,0,0,1,.6-.17h35.833a1.291,1.291,0,0,1,1.231,1.341v11.325A1.291,1.291,0,0,1,741.987,301.757Z" transform="translate(472.385 -0.051)" fill="#2f2e41"/>
    <path id="Path_959" data-name="Path 959" d="M742.633,382.257H706.69a1.163,1.163,0,0,1-.607-.173l-9.3-5.693a1.4,1.4,0,0,1,0-2.339l9.295-5.632a1.162,1.162,0,0,1,.6-.17h35.945a1.293,1.293,0,0,1,1.235,1.341v11.325A1.293,1.293,0,0,1,742.633,382.257Z" transform="translate(471.885 -56.56)" fill="#2f2e41"/>
    <g id="email_black_24dp" transform="translate(1192.719 289.189)">
      <path id="Path_926" data-name="Path 926" d="M0,0H10.431V10.431H0Z" fill="none"/>
      <path id="Path_927" data-name="Path 927" d="M10.693,4.869A.872.872,0,0,0,9.823,4H2.869A.872.872,0,0,0,2,4.869v5.216a.872.872,0,0,0,.869.869H9.823a.872.872,0,0,0,.869-.869Zm-.869,0L6.346,7.042,2.869,4.869Zm0,5.216H2.869V5.739L6.346,7.912,9.823,5.739Z" transform="translate(-1.131 -2.261)" fill="#ffffa4"/>
    </g>
    <g id="location_on_black_24dp" transform="translate(1192.421 265.049)">
      <path id="Path_928" data-name="Path 928" d="M0,0H10.64V10.64H0Z" fill="none"/>
      <path id="Path_929" data-name="Path 929" d="M8.1,2A3.1,3.1,0,0,0,5,5.1c0,2.327,3.1,5.763,3.1,5.763s3.1-3.436,3.1-5.763A3.1,3.1,0,0,0,8.1,2ZM5.887,5.1a2.217,2.217,0,1,1,4.433,0c0,1.277-1.277,3.187-2.217,4.38C7.181,8.3,5.887,6.367,5.887,5.1Z" transform="translate(-2.783 -1.113)" fill="#ffffa4"/>
      <circle id="Ellipse_249" data-name="Ellipse 249" cx="1.108" cy="1.108" r="1.108" transform="translate(4.211 2.882)" fill="#ffffa4"/>
    </g>
    <g id="phone_black_24dp" transform="translate(1192.97 313.923)">
      <path id="Path_930" data-name="Path 930" d="M0,0H9.541V9.541H0Z" fill="none"/>
      <path id="Path_931" data-name="Path 931" d="M4.407,3.8a4.895,4.895,0,0,0,.179,1.03L4.109,5.3a5.894,5.894,0,0,1-.3-1.507h.6m3.92,4.779a5.07,5.07,0,0,0,1.034.179v.592a6.133,6.133,0,0,1-1.511-.3l.477-.473M4.789,3H3.4a.4.4,0,0,0-.4.4,6.758,6.758,0,0,0,6.758,6.758.4.4,0,0,0,.4-.4V8.371a.4.4,0,0,0-.4-.4,4.535,4.535,0,0,1-1.419-.227.334.334,0,0,0-.123-.02.407.407,0,0,0-.282.115l-.875.875A6.022,6.022,0,0,1,4.439,6.1l.875-.875a.4.4,0,0,0,.1-.406A4.516,4.516,0,0,1,5.187,3.4.4.4,0,0,0,4.789,3Z" transform="translate(-1.807 -1.807)" fill="#ffffa4"/>
    </g>
  </g>
</svg>
