<svg xmlns="http://www.w3.org/2000/svg" width="237.25" height="129.898" viewBox="0 0 237.25 129.898">
  <g id="Group_346" data-name="Group 346" transform="translate(-939 -432.585)">
    <circle id="Ellipse_217" data-name="Ellipse 217" cx="64.679" cy="64.679" r="64.679" transform="translate(993.047 432.708)" fill="#fefef2"/>
    <path id="Path_451" data-name="Path 451" d="M326.04,356.194v0l-2.272,1.9-15.621,3.47a3.949,3.949,0,1,0,2.961,7.322l9.95-1.675a12.222,12.222,0,0,0,1.629-.387c.21-.063.417-.134.621-.207a63.548,63.548,0,0,1,3.71-11.239Z" transform="translate(671.778 116.365)" fill="#100abf"/>
    <path id="Path_452" data-name="Path 452" d="M820.705,351.367l-2.165-.014-1.158-.005-6.633-11.6a3.28,3.28,0,0,0,.144-.373,2.948,2.948,0,0,0-3.064-3.811,2.681,2.681,0,0,0-.626.074,63.8,63.8,0,0,1,7.237,21.29,3.694,3.694,0,0,0,.575.114,12.274,12.274,0,0,0,3.034-.1,24.216,24.216,0,0,1,3.31-.362Z" transform="translate(306.861 130.78)" fill="#faceab"/>
    <path id="Path_453" data-name="Path 453" d="M856.294,391.395l-7.959-1.106a1.227,1.227,0,0,0-1.346.872,1.249,1.249,0,0,0-.038.174l-.637,4.584a1.233,1.233,0,0,0,1.043,1.384l7.959,1.106a3.541,3.541,0,1,0,.978-7.014Z" transform="translate(278.412 90.973)" fill="#6c63ff"/>
    <path id="Path_454" data-name="Path 454" d="M491.4,266.857a64.083,64.083,0,0,0-7.186-21.478,64.906,64.906,0,0,0-116.874,6.21v0a63.908,63.908,0,0,0-3.353,10.629A64.83,64.83,0,1,0,491.4,266.857ZM427.261,340.7a64.326,64.326,0,1,1,64.284-64.284A64.357,64.357,0,0,1,427.261,340.7Z" transform="translate(630.482 220.97)" fill="#343434"/>
    <ellipse id="Ellipse_101" data-name="Ellipse 101" cx="8.308" cy="8.308" rx="8.308" ry="8.308" transform="translate(1015.494 485.533)" fill="#faceab" opacity="0.8"/>
    <ellipse id="Ellipse_102" data-name="Ellipse 102" cx="8.172" cy="8.172" rx="8.172" ry="8.172" transform="translate(1082.287 486.759)" fill="#faceab" opacity="0.8"/>
    <path id="Path_460" data-name="Path 460" d="M197.858,428.955h3.34l1.589-12.881h-4.929Z" transform="translate(795.037 129.813)" fill="#faceab"/>
    <path id="Path_461" data-name="Path 461" d="M0,0H10.5V4.055H4.055A4.055,4.055,0,0,1,0,0Z" transform="translate(1002.674 562.414) rotate(179.997)" fill="#2f2e41"/>
    <path id="Path_462" data-name="Path 462" d="M136.858,428.955H140.2l1.589-12.881h-4.929Z" transform="translate(839.421 129.813)" fill="#faceab"/>
    <path id="Path_463" data-name="Path 463" d="M0,0H10.5V4.055H4.055A4.055,4.055,0,0,1,0,0Z" transform="translate(986.058 562.414) rotate(179.997)" fill="#2f2e41"/>
    <path id="Path_464" data-name="Path 464" d="M317.06,482.131,320,505.389q.605,4.8.847,9.628l.791,15.817a1.09,1.09,0,0,1-1.088,1.144H316.09a1.09,1.09,0,0,1-1.077-.926l-4.007-26.4a.545.545,0,0,0-1.074-.018L305.1,530.49a1.09,1.09,0,0,1-.988.867l-4.1.26a1.09,1.09,0,0,1-1.169-1.121l1.324-42.373Z" transform="translate(676.748 24.139)" fill="#2f2e41"/>
    <circle id="Ellipse_103" data-name="Ellipse 103" cx="6.69" cy="6.69" r="6.69" transform="translate(974.111 459.762)" fill="#faceab"/>
    <path id="Path_465" data-name="Path 465" d="M288.808,406.015c1.634,3.813,8.716,6.537,10.351,1.09,1.264-4.211,6.27-5.982,8.479-6.567a1.094,1.094,0,0,0,.779-1.324l-6.175-24.256a8.52,8.52,0,0,0-16.651.643,37.367,37.367,0,0,0-.433,4.293C284.646,390.6,287.732,403.5,288.808,406.015Z" transform="translate(686.749 106.792)" fill="#100abf"/>
    <path id="Path_466" data-name="Path 466" d="M398.429,424.61a2.739,2.739,0,0,0-4.049,1.117l-9.691-.914,2.376,4.465,8.838.183a2.754,2.754,0,0,0,2.525-4.852Z" transform="translate(614.287 66.346)" fill="#faceab"/>
    <path id="Path_467" data-name="Path 467" d="M333.251,398.511a1.227,1.227,0,0,1-.913.407l-12.65-.289a12.632,12.632,0,0,1-8.321-3.136l-7.585-6.652a3.949,3.949,0,0,1,3.8-6.922l12.562,9.913,12.231,2.357a1.23,1.23,0,0,1,.929,1.059l.251,2.313a1.227,1.227,0,0,1-.142.718,1.214,1.214,0,0,1-.165.234Z" transform="translate(674.647 97.41)" fill="#100abf"/>
    <path id="Path_468" data-name="Path 468" d="M290.4,316.821a1.091,1.091,0,0,0,1.608-.645l0-.015A5.219,5.219,0,0,0,292,314.6a1.953,1.953,0,0,1,.371-1.476c.661-.714,1.838-.335,2.794-.516a2.36,2.36,0,0,0,1.836-2.52c-.014-.108-.035-.217-.059-.325a1.818,1.818,0,0,1,1.887-2.2c.966.055,2.01.348,2.809-.368a2.072,2.072,0,0,0,.5-2.234,4.207,4.207,0,0,0-3.024-2.387,11.064,11.064,0,0,0-9.378,1.539,4.966,4.966,0,0,0-1.9,2.208,2.418,2.418,0,0,0,.6,2.7,4.993,4.993,0,0,0-1.157,4.85C287.65,315.107,289.478,316.29,290.4,316.821Z" transform="translate(685.323 155.104)" fill="#2f2e41"/>
    <path id="Path_469" data-name="Path 469" d="M650.968,428.767h-3.339l-1.589-12.881h4.929Z" transform="translate(468.934 129.95)" fill="#faceab"/>
    <path id="Path_470" data-name="Path 470" d="M632.284,461.671h6.44v4.055h-10.5A4.055,4.055,0,0,1,632.284,461.671Z" transform="translate(481.893 96.636)" fill="#2f2e41"/>
    <path id="Path_471" data-name="Path 471" d="M737.968,428.767h-3.339l-1.589-12.881h4.929Z" transform="translate(405.631 129.95)" fill="#faceab"/>
    <path id="Path_472" data-name="Path 472" d="M719.284,461.671h6.44v4.055h-10.5a4.055,4.055,0,0,1,4.055-4.055Z" transform="translate(418.591 96.636)" fill="#2f2e41"/>
    <path id="Path_473" data-name="Path 473" d="M812.574,497.487c-.036,0-.073,0-.109,0l-4.726-.378a1.362,1.362,0,0,1-1.236-1.575l7.166-44.323.48-6.252a1.354,1.354,0,0,1,1.067-1.226l7.208-1.576a1.353,1.353,0,0,1,1.415.561l1.757,2.569a30.077,30.077,0,0,0,2.246,2.862,15.382,15.382,0,0,1,3.557,9.734,34.513,34.513,0,0,0,.527,5.054l5.8,31.26a1.361,1.361,0,0,1-1.209,1.57l-4.48.339a1.356,1.356,0,0,1-1.444-1l-7.947-29.554a.272.272,0,0,0-.526,0l-8.231,30.93a1.363,1.363,0,0,1-1.316,1.011Z" transform="translate(307.384 53.253)" fill="#2f2e41"/>
    <circle id="Ellipse_104" data-name="Ellipse 104" cx="6.69" cy="6.69" r="6.69" transform="translate(1125.837 461.937)" fill="#faceab"/>
    <path id="Path_474" data-name="Path 474" d="M832.816,399.016l-.138-9.554c-.51-6.11,2.2-9.319,4.556-10.932a5.425,5.425,0,0,1,4.2-.8l5.265,1.138a5.549,5.549,0,0,1,3.556,2.532,5.181,5.181,0,0,1,.592,4.088,5.611,5.611,0,0,1-2.288,3.133,12.233,12.233,0,0,0-4.846,8.612l-.005.111Z" transform="translate(288.371 100.197)" fill="#ff0"/>
    <path id="Path_475" data-name="Path 475" d="M765.5,417.117a3.006,3.006,0,0,1-4.494.13c-2.638-2.767,1.675-6.922,4.323-4.149h0a2.9,2.9,0,0,1,.259.305l13.355-.332,1.594-2.915,4.9,1.9c-.94,1.458-2.02,7.183-4.48,6.9C780.636,418.971,765.832,417.14,765.5,417.117Z" transform="translate(341.072 76.51)" fill="#faceab"/>
    <path id="Path_476" data-name="Path 476" d="M833.985,394.551l-3.733-2.74a1.227,1.227,0,0,1-.263-1.713l4.754-6.478a3.541,3.541,0,1,1,5.709,4.19l-4.754,6.478A1.227,1.227,0,0,1,833.985,394.551Z" transform="translate(290.455 96.87)" fill="#ff0"/>
    <path id="Path_477" data-name="Path 477" d="M852.068,316.665a10.921,10.921,0,0,1-2.919.5,3.682,3.682,0,0,1-2.689-1.057,3.365,3.365,0,0,1-.2-3.928,5.512,5.512,0,0,1,3.42-2.289,16.324,16.324,0,0,1,4.2-.307,5.208,5.208,0,0,1,5.821.123,8.249,8.249,0,0,1,3.207,5.134,20.83,20.83,0,0,1,.179,6.176c-.092,1.129,0,2.6,1.081,2.942a1.946,1.946,0,0,0,1.9-.705c.488-.523.829-1.172,1.339-1.673a4.182,4.182,0,0,1,4.266-.774,6.878,6.878,0,0,1,3.389,2.939A10.225,10.225,0,0,1,863.45,338.96c-3.684-1.106-6.465-4.215-8.255-7.62a25.166,25.166,0,0,1-2.729-14.279Z" transform="translate(278.833 150.29)" fill="#2f2e41"/>
    <path id="Path_478" data-name="Path 478" d="M401.478,687.045H164.772a.272.272,0,0,1,0-.545H401.478a.272.272,0,1,1,0,.545Z" transform="translate(774.5 -124.562)" fill="#3f3d56"/>
    <path id="Path_479" data-name="Path 479" d="M-2584.927-1711.2s3.893-9.739,14.214-9.573,13.151,9.573,13.151,9.573" transform="translate(3604.846 2189.447)" fill="none" stroke="#343434" stroke-linecap="round" stroke-width="1"/>
    <path id="Path_480" data-name="Path 480" d="M-2584.927-1711.2s3.893-9.739,14.214-9.573,13.151,9.573,13.151,9.573" transform="translate(3653.059 2189.447)" fill="none" stroke="#343434" stroke-linecap="round" stroke-width="1"/>
    <path id="Path_481" data-name="Path 481" d="M-2471.817-2058.751s3.2,15.043,29.7,15.282,32.045-15.282,32.045-15.282" transform="translate(3498.6 2569.68)" fill="none" stroke="#343434" stroke-linecap="round" stroke-width="1"/>
  </g>
</svg>
