<svg xmlns="http://www.w3.org/2000/svg" width="283.324" height="174.261" viewBox="0 0 283.324 174.261">
  <path id="Path_1292" data-name="Path 1292" d="M294.394,199.688a58.058,58.058,0,0,1-1.7,14.009q-.573,2.316-1.33,4.537a53.577,53.577,0,0,1-2.146,5.369q-.613,1.328-1.3,2.6a35.014,35.014,0,0,1-2.927,14.069,36.272,36.272,0,0,1-17.6,18.137,37.028,37.028,0,0,1-15.715,3.608H64.858a47.07,47.07,0,0,1-23.674-6.329l-.111-.063q-1.537-.9-3-1.905a47,47,0,0,1-6.151-5.071,45.769,45.769,0,0,1-6.762-8.378,44.708,44.708,0,0,1-6.877-23.869,56.29,56.29,0,0,1-7.216-27.874,55.238,55.238,0,0,1,11.164-33.809,47.53,47.53,0,0,1,4.741-5.275,44.118,44.118,0,0,1,5.422-4.438,42.184,42.184,0,0,1,4.811-2.887c.7-.354,1.393-.688,2.1-1,.623-.277,1.253-.534,1.891-.777q1.147-.435,2.324-.8t2.321-.64q1.684-.411,3.425-.669c.962-.142,1.924-.241,2.887-.315.765-.058,1.537-.089,2.314-.1h.421c.856,0,1.708.034,2.552.091.089-.178.185-.358.274-.534.337-.642.686-1.282,1.037-1.908a.06.06,0,0,1,0-.017c.06-.111.12-.219.183-.325.284-.512.58-1.02.883-1.523.14-.241.277-.467.419-.693a1.842,1.842,0,0,1,.1-.164q.216-.361.44-.722,1.114-1.78,2.316-3.5l.2-.293c.125-.178.241-.351.38-.529.332-.464.674-.931,1.018-1.388.241-.327.481-.652.741-.962q.938-1.2,1.924-2.405t2.049-2.374c.1-.108.192-.214.293-.32l1.027-1.121h0c.051-.053.094-.1.142-.149h0c.123-.132.241-.265.373-.392.551-.585,1.116-1.157,1.684-1.727a91.694,91.694,0,0,1,9.213-8.027c.127-.1.257-.2.385-.293.611-.459,1.232-.914,1.852-1.361a97.493,97.493,0,0,1,10.683-6.663c.255-.147.515-.284.777-.419A101.993,101.993,0,0,1,106.061,95.4c1.9-.753,3.849-1.46,5.807-2.107,1.3-.428,2.612-.835,3.938-1.217q3.108-.895,6.259-1.6a111.458,111.458,0,0,1,18.82-2.564q2.886-.147,5.838-.152a111.854,111.854,0,0,1,28.144,3.56,1.015,1.015,0,0,0,.873.455h.808c.351.1.7.192,1.051.293q2.942.847,5.8,1.85l.481.173A103.543,103.543,0,0,1,197.57,100.1a98.789,98.789,0,0,1,11.462,7.082q.844.606,1.665,1.222,1-.637,2.025-1.222a39.84,39.84,0,0,1,8.39-3.577,38.271,38.271,0,0,1,18.82-.736,41.644,41.644,0,0,1,21.086,11.893,49.2,49.2,0,0,1,6.324,8.029c.132.207.265.416.392.628a52.925,52.925,0,0,1,4.027,8.027c.041.1.082.2.118.3a55.587,55.587,0,0,1,2.478,8.022c.029.139.063.277.091.416a57.763,57.763,0,0,1,1.184,8.027,1.556,1.556,0,0,0,.019.3q.152,2.1.154,4.234c0,1.275-.043,2.54-.123,3.8,0,.137-.019.279-.031.421-.022.363-.053.722-.084,1.087a45.645,45.645,0,0,1,5.143,4.852q1.051,1.147,2.035,2.381a50.665,50.665,0,0,1,5.244,8.027A56.332,56.332,0,0,1,294.394,199.688Z" transform="translate(-11.07 -87.76)" fill="#ccd2ed" opacity="0.5"/>
</svg>
